PathFileType	4	(X/Y/Z)	C:\Users\u0088756\Documents\Phd\software\TrackingSim_Simtk\KSMarker.trc
DataRate	CameraRate	NumFrames	NumMarkers	Units	OrigDataRate	OrigDataStartFrame	OrigNumFrames
77.343750	77.343750	9	34	m	77.343750	51	100
Frame#	Times		RASI		LASI		CLAV		RSHO		LSHO		LKNE		LKNEmed		LTHI3		LANK		LANKmed		LTIB		LTIB2		LTIB3		LTOE		LHEE		LLatFoot		RPSI		LPSI		RASI		LASI		RKNE		RTHI		RTHI2		RTHI3		RANK		RANKmed		RTIB		RTIB2		RTIB3		RTOE		RHEE		RLatFoot		RPSI		LPSI
			X1	Y1	Z1	X2	Y2	Z2	X3	Y3	Z3	X4	Y4	Z4	X5	Y5	Z5	X6	Y6	Z6	X7	Y7	Z7	X8	Y8	Z8	X9	Y9	Z9	X10	Y10	Z10	X11	Y11	Z11	X12	Y12	Z12	X13	Y13	Z13	X14	Y14	Z14	X15	Y15	Z15	X16	Y16	Z16	X17	Y17	Z17	X18	Y18	Z18	X19	Y19	Z19	X20	Y20	Z20	X21	Y21	Z21	X22	Y22	Z22	X23	Y23	Z23	X24	Y24	Z24	X25	Y25	Z25	X26	Y26	Z26	X27	Y27	Z27	X28	Y28	Z28	X29	Y29	Z29	X30	Y30	Z30	X31	Y31	Z31	X32	Y32	Z32	X33	Y33	Z33	X34	Y34	Z34

51	0.64646	1.0171	0.94718	0.085978	0.99241	0.95329	-0.15506	0.98631	1.4194	-0.055931	0.90454	1.4743	0.1575	0.87663	1.4389	-0.27265	0.77947	0.45114	-0.16035	0.79501	0.44992	-0.044348	0.83636	0.63351	-0.22048	0.6321	0.069385	-0.11277	0.68326	0.077419	-0.026477	0.71996	0.2696	-0.16505	0.66273	0.27959	-0.1639	0.68488	0.22696	-0.15969	0.80192	0.020264	-0.10094	0.57027	0.022012	-0.043108	0.69608	-0.015683	-0.15014	0.76951	0.97998	0.019297	0.7565	0.98839	-0.047282	1.0171	0.94718	0.085978	0.99241	0.95329	-0.15506	1.0845	0.48712	0.10944	1.037	0.73061	0.15965	0.98814	0.69375	0.16468	1.0335	0.67868	0.15734	1.2258	0.099194	0.096759	1.241	0.12231	0.0029478	1.1583	0.30064	0.1293	1.1095	0.27812	0.13127	1.1539	0.2457	0.12757	1.3907	0.14229	0.045839	1.1843	0.025477	0.042336	1.339	0.071049	0.12209	0.76951	0.97998	0.019297	0.7565	0.98839	-0.047282
52	0.65939	1.0307	0.94571	0.08677	1.0054	0.95107	-0.15423	0.99983	1.4173	-0.055087	0.91893	1.4721	0.1587	0.88934	1.4371	-0.27137	0.79074	0.44956	-0.16041	0.80618	0.4479	-0.044402	0.84856	0.63184	-0.21992	0.63377	0.071365	-0.1124	0.68505	0.078266	-0.026085	0.72646	0.26935	-0.16485	0.66949	0.28071	-0.16376	0.69037	0.22757	-0.15947	0.80276	0.019891	-0.10078	0.57119	0.02464	-0.04278	0.6964	-0.014455	-0.15001	0.78289	0.97798	0.020569	0.76971	0.98616	-0.046003	1.0307	0.94571	0.08677	1.0054	0.95107	-0.15423	1.1002	0.4863	0.11008	1.0523	0.72984	0.15982	1.0037	0.69283	0.16558	1.049	0.67788	0.15777	1.2371	0.096633	0.097386	1.2514	0.11921	0.0033051	1.172	0.2989	0.12986	1.1231	0.2769	0.1325	1.1671	0.244	0.12842	1.4017	0.13815	0.044414	1.1943	0.023008	0.043749	1.3503	0.06765	0.12155	0.78289	0.97798	0.020569	0.76971	0.98617	-0.046003
53	0.67232	1.0447	0.94473	0.087636	1.019	0.94917	-0.15333	1.0135	1.4155	-0.054108	0.93324	1.4701	0.15999	0.9023	1.4356	-0.27003	0.80281	0.44813	-0.1606	0.81808	0.446	-0.044569	0.86153	0.63035	-0.21939	0.63583	0.073921	-0.11222	0.68718	0.079627	-0.02585	0.73356	0.26943	-0.1648	0.67689	0.28223	-0.16378	0.69641	0.22859	-0.1594	0.80373	0.019303	-0.10059	0.57227	0.028267	-0.042642	0.69676	-0.012988	-0.1499	0.79667	0.97601	0.021762	0.78335	0.98392	-0.044815	1.0447	0.94473	0.087636	1.019	0.94917	-0.15334	1.1173	0.48627	0.11074	1.0685	0.72967	0.16011	1.0201	0.69238	0.16651	1.0655	0.67769	0.15828	1.2447	0.092945	0.098139	1.2585	0.11483	0.0038207	1.1847	0.29679	0.1305	1.1353	0.27595	0.13375	1.1785	0.24202	0.12933	1.4097	0.13031	0.043217	1.1996	0.020172	0.045267	1.3575	0.061355	0.12119	0.79667	0.97601	0.021762	0.78335	0.98392	-0.044815
54	0.68525	1.0592	0.94427	0.088625	1.0331	0.94751	-0.15233	1.0272	1.414	-0.052988	0.9475	1.4683	0.16139	0.91544	1.4343	-0.26859	0.81566	0.44687	-0.16088	0.83074	0.44422	-0.044839	0.87527	0.62906	-0.21886	0.63826	0.077116	-0.11225	0.68963	0.081538	-0.025825	0.74122	0.2699	-0.1649	0.68491	0.28421	-0.16396	0.70299	0.23006	-0.15951	0.80477	0.018592	-0.10049	0.57354	0.032939	-0.042724	0.69712	-0.011175	-0.14989	0.81094	0.97415	0.022957	0.79749	0.9817	-0.043637	1.0592	0.94427	0.088625	1.0331	0.94751	-0.15233	1.1354	0.48672	0.11143	1.0849	0.72976	0.16091	1.0369	0.69209	0.16759	1.0824	0.67776	0.15912	1.25	0.088948	0.098685	1.2639	0.11027	0.0042566	1.1966	0.29461	0.13108	1.1466	0.27532	0.13465	1.1887	0.24006	0.13003	1.4159	0.12052	0.042645	1.2021	0.017758	0.046219	1.3618	0.053515	0.12106	0.81094	0.97415	0.022957	0.79749	0.9817	-0.043637
55	0.69818	1.0742	0.9443	0.089779	1.0478	0.94606	-0.15115	1.041	1.4128	-0.051716	0.96176	1.4667	0.16295	0.9286	1.4332	-0.26698	0.82928	0.44578	-0.16125	0.84419	0.44251	-0.045201	0.88969	0.62801	-0.21827	0.64106	0.080985	-0.1125	0.69246	0.084009	-0.026027	0.74944	0.27078	-0.16515	0.69356	0.28666	-0.16427	0.71011	0.23203	-0.15978	0.80586	0.017844	-0.10055	0.57507	0.038663	-0.04301	0.69747	-0.0089311	-0.15005	0.82568	0.97245	0.024264	0.81211	0.97956	-0.042354	1.0742	0.9443	0.089779	1.0478	0.94606	-0.15115	1.1535	0.48716	0.11218	1.1014	0.72974	0.16225	1.0536	0.69172	0.16889	1.0991	0.67772	0.16035	1.2547	0.085257	0.098745	1.2692	0.10624	0.0043278	1.208	0.2925	0.13149	1.1574	0.27485	0.1351	1.1984	0.23824	0.13038	1.4216	0.11052	0.042333	1.204	0.016111	0.046313	1.3652	0.04554	0.12079	0.82568	0.97245	0.024263	0.81211	0.97956	-0.042354
56	0.71111	1.0895	0.94478	0.09114	1.0629	0.9448	-0.14977	1.0547	1.412	-0.050298	0.97604	1.4654	0.16468	0.94169	1.4324	-0.2652	0.8437	0.44487	-0.16171	0.85845	0.44089	-0.045669	0.90474	0.62724	-0.21762	0.64433	0.085551	-0.11296	0.69575	0.087065	-0.026467	0.75826	0.27208	-0.16555	0.70287	0.2896	-0.16471	0.7178	0.2345	-0.1602	0.80702	0.017068	-0.10082	0.57698	0.045496	-0.043494	0.69785	-0.0062179	-0.15037	0.84079	0.97101	0.025725	0.82711	0.9776	-0.040922	1.0895	0.94478	0.091141	1.0629	0.9448	-0.14977	1.1707	0.48721	0.113	1.1177	0.72945	0.16384	1.0701	0.69124	0.17038	1.1156	0.67743	0.16178	1.2599	0.082062	0.098555	1.2749	0.10284	0.0041767	1.2193	0.2905	0.13182	1.1682	0.27432	0.13543	1.208	0.23654	0.13059	1.4276	0.10114	0.041773	1.2065	0.015125	0.046103	1.3689	0.038161	0.12021	0.84079	0.97101	0.025726	0.82711	0.9776	-0.040922
57	0.72404	1.1051	0.94567	0.09273	1.0782	0.94372	-0.14815	1.0685	1.4116	-0.048758	0.9903	1.4645	0.16655	0.95467	1.432	-0.26327	0.859	0.44416	-0.16233	0.87359	0.43937	-0.046295	0.9204	0.6268	-0.21693	0.6482	0.090839	-0.11368	0.69962	0.090744	-0.02717	0.7678	0.27382	-0.16616	0.71296	0.29302	-0.16532	0.72621	0.2375	-0.16084	0.80827	0.016221	-0.10125	0.57943	0.053545	-0.044212	0.69833	-0.0030217	-0.15083	0.85612	0.96998	0.027287	0.84236	0.97599	-0.039399	1.1051	0.94567	0.092731	1.0782	0.94372	-0.14815	1.1864	0.4868	0.11396	1.1338	0.72899	0.16543	1.0862	0.69082	0.17204	1.1317	0.67698	0.16328	1.2656	0.079296	0.098646	1.2808	0.099846	0.0042472	1.2302	0.2886	0.13234	1.1787	0.27365	0.13609	1.2176	0.23493	0.13106	1.4338	0.092289	0.040887	1.2097	0.014619	0.046436	1.3733	0.031396	0.11958	0.85612	0.96997	0.027288	0.84236	0.97599	-0.039398
58	0.73697	1.1206	0.9469	0.094524	1.0938	0.94284	-0.14634	1.0821	1.4117	-0.047139	1.0045	1.4639	0.1685	0.96756	1.432	-0.26125	0.87548	0.4436	-0.1632	0.88989	0.43794	-0.047181	0.9368	0.62671	-0.2163	0.65293	0.096884	-0.1147	0.70429	0.095103	-0.028176	0.77831	0.27599	-0.16704	0.72412	0.29693	-0.16621	0.73558	0.24101	-0.16175	0.80971	0.015281	-0.10181	0.58269	0.062947	-0.045224	0.69908	0.00069378	-0.15144	0.87154	0.96943	0.028872	0.85775	0.97483	-0.037861	1.1206	0.9469	0.094524	1.0938	0.94284	-0.14634	1.201	0.48617	0.11508	1.1497	0.72855	0.16702	1.102	0.69058	0.17384	1.1474	0.67655	0.16483	1.2716	0.076881	0.09921	1.2867	0.097154	0.0047384	1.2406	0.28686	0.13316	1.1889	0.27297	0.13718	1.2269	0.23346	0.13194	1.4398	0.083718	0.039988	1.213	0.01455	0.047487	1.3777	0.025062	0.11917	0.87154	0.96943	0.028872	0.85775	0.97483	-0.037861
59	0.7499	1.1361	0.94838	0.096485	1.1095	0.94228	-0.14436	1.0957	1.4122	-0.045465	1.0186	1.4638	0.17051	0.98036	1.4323	-0.25916	0.8936	0.44315	-0.16445	0.9078	0.43655	-0.04846	0.95415	0.627	-0.21584	0.65887	0.10374	-0.11605	0.71013	0.1002	-0.029511	0.79018	0.27858	-0.16827	0.73672	0.30132	-0.16744	0.74631	0.24505	-0.163	0.81151	0.014253	-0.10249	0.58717	0.073854	-0.046536	0.70033	0.005004	-0.15218	0.88697	0.96935	0.030475	0.87321	0.97415	-0.036309	1.1361	0.94837	0.096486	1.1095	0.94228	-0.14436	1.2149	0.48566	0.11641	1.1653	0.72826	0.16883	1.1173	0.69056	0.17579	1.1626	0.67628	0.16659	1.2771	0.074822	0.099994	1.2922	0.094851	0.005473	1.2505	0.28536	0.1342	1.1985	0.27251	0.13843	1.2358	0.23225	0.133	1.4452	0.075593	0.039497	1.216	0.014913	0.048699	1.3816	0.01918	0.1191	0.88697	0.96935	0.030475	0.87321	0.97415	-0.036309
